<?xml version="1.0" encoding="UTF-8" standalone="no"?>
<!-- Created with Inkscape (http://www.inkscape.org/) -->

<svg
   xmlns:dc="http://purl.org/dc/elements/1.1/"
   xmlns:cc="http://creativecommons.org/ns#"
   xmlns:rdf="http://www.w3.org/1999/02/22-rdf-syntax-ns#"
   xmlns:svg="http://www.w3.org/2000/svg"
   xmlns="http://www.w3.org/2000/svg"
   xmlns:sodipodi="http://sodipodi.sourceforge.net/DTD/sodipodi-0.dtd"
   xmlns:inkscape="http://www.inkscape.org/namespaces/inkscape"
   width="27.471687mm"
   height="12.257249mm"
   viewBox="0 0 27.471687 12.257249"
   version="1.1"
   id="svg40"
   inkscape:version="0.92.4 5da689c313, 2019-01-14"
   sodipodi:docname="Lean.svg">
  <defs
     id="defs34" />
  <sodipodi:namedview
     id="base"
     pagecolor="#ffffff"
     bordercolor="#666666"
     borderopacity="1.0"
     inkscape:pageopacity="0.0"
     inkscape:pageshadow="2"
     inkscape:zoom="2.8"
     inkscape:cx="-20.425386"
     inkscape:cy="-3.8594561"
     inkscape:document-units="mm"
     inkscape:current-layer="layer1"
     showgrid="false"
     inkscape:window-width="1920"
     inkscape:window-height="1013"
     inkscape:window-x="0"
     inkscape:window-y="0"
     inkscape:window-maximized="1"
     fit-margin-top="0"
     fit-margin-left="0"
     fit-margin-right="0"
     fit-margin-bottom="0" />
  <metadata
     id="metadata37">
    <rdf:RDF>
      <cc:Work
         rdf:about="">
        <dc:format>image/svg+xml</dc:format>
        <dc:type
           rdf:resource="http://purl.org/dc/dcmitype/StillImage" />
        <dc:title></dc:title>
      </cc:Work>
    </rdf:RDF>
  </metadata>
  <g
     inkscape:label="Layer 1"
     inkscape:groupmode="layer"
     id="layer1"
     transform="translate(-82.11748,-100.10411)">
    <path
       style="fill:#FF9900;stroke-width:0.26458338"
       d="m 99.697913,112.16687 c -0.6147,-0.40815 -0.6147,-0.40815 0.533867,-0.85851 1.14036,-0.44715 1.14795,-0.45881 1.06201,-1.63116 -0.20971,-2.86069 1.59616,-4.86557 4.68889,-5.20563 2.44588,-0.26893 2.45978,-1.12814 0.0373,-2.30418 -0.88092,-0.42765 -0.9552,-0.42283 -1.9045,0.12351 -1.26434,0.72767 -1.57477,0.71625 -3.94572,-0.14514 -2.838997,-1.03143 -5.113927,-0.99153 -8.57894,0.15046 -4.3134,1.42159 -8.06802,0.99854 -9.34951,-1.05344 -0.26085,-0.41769 -0.17506,-0.41155 0.90099,0.0644 2.2847,1.01063 4.38429,0.96302 8.08646,-0.18337 4.108463,-1.272204 6.080753,-1.337064 8.79408,-0.2892 2.1703,0.83814 2.94796,0.87169 4.0034,0.1727 1.07616,-0.71271 1.12813,-0.70223 3.5564,0.71692 2.47905,1.44882 2.41345,1.28563 1.13995,2.83633 -0.87154,1.06123 -1.09545,1.19436 -1.84138,1.09478 -3.14175,-0.41942 -4.72906,1.76096 -4.00896,5.50682 0.15213,0.79135 -2.31808,1.57318 -3.174287,1.00468 z M 87.34825,108.69309 c -1.06382,-0.43121 -1.34682,-1.08166 -0.34569,-0.79453 1.48778,0.42669 3.46659,0.2834 5.79835,-0.41988 3.006963,-0.90691 5.302983,-0.66986 4.853633,0.50111 -0.1215,0.31665 -0.43099,0.37302 -1.41083,0.25697 -0.74799,-0.0886 -2.016213,0.0244 -3.138583,0.27971 -1.99317,0.45334 -4.8574,0.54121 -5.75688,0.17662 z m -1.88042,-2.36693 c -1.15405,-0.29597 -2.68768,-1.28546 -3.05185,-1.96903 -0.27141,-0.50946 -0.25828,-0.5335 0.12071,-0.22092 1.59448,1.31504 5.202,1.38425 9.29989,0.17842 4.224783,-1.24316 5.682003,-1.24098 9.12644,0.0136 1.29744,0.47259 -0.77533,0.90092 -2.375687,0.49093 -1.95833,-0.5017 -3.12089,-0.37775 -6.504373,0.69347 -2.6078,0.82564 -5.28435,1.15478 -6.61513,0.81348 z"
       id="path23"
       inkscape:connector-curvature="0"
       sodipodi:nodetypes="ccccccccccscccccccccccccccccccccscc" />
  </g>
</svg>
